<svg width="124" height="60" viewBox="0 0 124 60" fill="none" xmlns="http://www.w3.org/2000/svg">
<path d="M2.05 10H7.55V24.75L14.55 10H20.05L13.5 22.85L20.15 45H14.4L9.75 29.4L7.55 33.85V45H2.05V10ZM64.1594 10H69.6594V24.25H75.5594V10H81.0594V45H75.5594V29.25H69.6594V45H64.1594V10Z" fill="#19BCBD"/>
<path d="M30.7043 45.5C28.0376 45.5 26.0043 44.75 24.6043 43.25C23.2043 41.7167 22.5043 39.5333 22.5043 36.7V10H28.0043V37.1C28.0043 38.3 28.2376 39.1667 28.7043 39.7C29.2043 40.2333 29.9043 40.5 30.8043 40.5C31.7043 40.5 32.3876 40.2333 32.8543 39.7C33.3543 39.1667 33.6043 38.3 33.6043 37.1V10H38.9043V36.7C38.9043 39.5333 38.2043 41.7167 36.8043 43.25C35.4043 44.75 33.371 45.5 30.7043 45.5ZM42.8215 10H49.7215L55.0715 30.95H55.1715V10H60.0715V45H54.4215L47.8215 19.45H47.7215V45H42.8215V10ZM89.4055 10H96.8555L102.555 45H97.0555L96.0555 38.05V38.15H89.8055L88.8055 45H83.7055L89.4055 10ZM95.4055 33.4L92.9555 16.1H92.8555L90.4555 33.4H95.4055ZM105.224 10H113.374C116.207 10 118.274 10.6667 119.574 12C120.874 13.3 121.524 15.3167 121.524 18.05V20.2C121.524 23.8333 120.324 26.1333 117.924 27.1V27.2C119.257 27.6 120.19 28.4167 120.724 29.65C121.29 30.8833 121.574 32.5333 121.574 34.6V40.75C121.574 41.75 121.607 42.5667 121.674 43.2C121.74 43.8 121.907 44.4 122.174 45H116.574C116.374 44.4333 116.24 43.9 116.174 43.4C116.107 42.9 116.074 42 116.074 40.7V34.3C116.074 32.7 115.807 31.5833 115.274 30.95C114.774 30.3167 113.89 30 112.624 30H110.724V45H105.224V10ZM112.724 25C113.824 25 114.64 24.7167 115.174 24.15C115.74 23.5833 116.024 22.6333 116.024 21.3V18.6C116.024 17.3333 115.79 16.4167 115.324 15.85C114.89 15.2833 114.19 15 113.224 15H110.724V25H112.724Z" fill="white"/>
<rect x="2" y="47" width="120" height="13" fill="white"/>
<path d="M2.85902 50H5.85902V51H3.95902V52.85H5.46902V53.85H3.95902V56H5.85902V57H2.85902V50ZM12.2918 50H13.6718L14.7418 54.19H14.7618V50H15.7418V57H14.6118L13.2918 51.89H13.2718V57H12.2918V50ZM23.2194 51H22.0694V50H25.4694V51H24.3194V57H23.2194V51ZM31.802 50H34.802V51H32.902V52.85H34.412V53.85H32.902V56H34.802V57H31.802V50ZM41.2348 50H42.8648C43.4315 50 43.8448 50.1333 44.1048 50.4C44.3648 50.66 44.4948 51.0633 44.4948 51.61V52.04C44.4948 52.7667 44.2548 53.2267 43.7748 53.42V53.44C44.0415 53.52 44.2281 53.6833 44.3348 53.93C44.4481 54.1767 44.5048 54.5067 44.5048 54.92V56.15C44.5048 56.35 44.5115 56.5133 44.5248 56.64C44.5381 56.76 44.5715 56.88 44.6248 57H43.5048C43.4648 56.8867 43.4381 56.78 43.4248 56.68C43.4115 56.58 43.4048 56.4 43.4048 56.14V54.86C43.4048 54.54 43.3515 54.3167 43.2448 54.19C43.1448 54.0633 42.9681 54 42.7148 54H42.3348V57H41.2348V50ZM42.7348 53C42.9548 53 43.1181 52.9433 43.2248 52.83C43.3381 52.7167 43.3948 52.5267 43.3948 52.26V51.72C43.3948 51.4667 43.3481 51.2833 43.2548 51.17C43.1681 51.0567 43.0281 51 42.8348 51H42.3348V53H42.7348ZM51.9085 51H50.7585V50H54.1585V51H53.0085V57H51.9085V51ZM60.8821 50H62.3721L63.5121 57H62.4121L62.2121 55.61V55.63H60.9621L60.7621 57H59.7421L60.8821 50ZM62.0821 54.68L61.5921 51.22H61.5721L61.0921 54.68H62.0821ZM69.8457 50H70.9457V57H69.8457V50ZM77.5696 50H78.9496L80.0196 54.19H80.0396V50H81.0196V57H79.8896L78.5696 51.89H78.5496V57H77.5696V50ZM87.6371 50H89.2072L89.9072 55.01H89.9272L90.6271 50H92.1972V57H91.1572V51.7H91.1372L90.3372 57H89.4172L88.6172 51.7H88.5972V57H87.6371V50ZM98.818 50H101.818V51H99.918V52.85H101.428V53.85H99.918V56H101.818V57H98.818V50ZM108.251 50H109.631L110.701 54.19H110.721V50H111.701V57H110.571L109.251 51.89H109.231V57H108.251V50ZM119.178 51H118.028V50H121.428V51H120.278V57H119.178V51Z" fill="black"/>
</svg>
