<?xml version="1.0" encoding="UTF-8"?>
<svg id="Layer_2" data-name="Layer 2" xmlns="http://www.w3.org/2000/svg" xmlns:xlink="http://www.w3.org/1999/xlink" viewBox="0 0 326.53 354.46">
  <defs>
    <style>
      .cls-1 {
        fill: url(#linear-gradient-2);
      }

      .cls-2 {
        fill: url(#linear-gradient-3);
      }

      .cls-3 {
        fill: url(#linear-gradient);
      }
    </style>
    <linearGradient id="linear-gradient" x1="137.61" y1="110.93" x2="40.75" y2="318.65" gradientTransform="translate(11.91 -8.3) rotate(1.47)" gradientUnits="userSpaceOnUse">
      <stop offset="0" stop-color="#fff" stop-opacity="0"/>
      <stop offset=".07" stop-color="#c6eeee" stop-opacity=".25"/>
      <stop offset=".15" stop-color="#92dedf" stop-opacity=".48"/>
      <stop offset=".23" stop-color="#68d2d2" stop-opacity=".67"/>
      <stop offset=".31" stop-color="#47c8c9" stop-opacity=".81"/>
      <stop offset=".39" stop-color="#2fc1c2" stop-opacity=".92"/>
      <stop offset=".47" stop-color="#21bdbe" stop-opacity=".98"/>
      <stop offset=".55" stop-color="#1dbcbd"/>
    </linearGradient>
    <linearGradient id="linear-gradient-2" x1="71.62" y1="207.54" x2="313.05" y2="194.89" gradientTransform="translate(11.91 -8.3) rotate(1.47)" gradientUnits="userSpaceOnUse">
      <stop offset="0" stop-color="#fff" stop-opacity="0"/>
      <stop offset=".05" stop-color="#d4f2f2" stop-opacity=".19"/>
      <stop offset=".12" stop-color="#a4e4e4" stop-opacity=".4"/>
      <stop offset=".2" stop-color="#7ad7d8" stop-opacity=".59"/>
      <stop offset=".28" stop-color="#58cdce" stop-opacity=".74"/>
      <stop offset=".36" stop-color="#3ec5c6" stop-opacity=".85"/>
      <stop offset=".45" stop-color="#2bc0c1" stop-opacity=".94"/>
      <stop offset=".56" stop-color="#20bdbd" stop-opacity=".98"/>
      <stop offset=".71" stop-color="#1dbcbd"/>
    </linearGradient>
    <linearGradient id="linear-gradient-3" x1="187.9" y1="191.48" x2="65.79" y2="17.1" gradientTransform="translate(12.7 -7.6) rotate(1.75)" gradientUnits="userSpaceOnUse">
      <stop offset="0" stop-color="#fff" stop-opacity="0"/>
      <stop offset=".02" stop-color="#f0fafa" stop-opacity=".06"/>
      <stop offset=".13" stop-color="#a5e4e4" stop-opacity=".39"/>
      <stop offset=".23" stop-color="#6ad3d3" stop-opacity=".66"/>
      <stop offset=".32" stop-color="#40c6c7" stop-opacity=".84"/>
      <stop offset=".39" stop-color="#26bebf" stop-opacity=".96"/>
      <stop offset=".44" stop-color="#1dbcbd"/>
    </linearGradient>
  </defs>
  <g id="Layer_1-2" data-name="Layer 1">
    <path class="cls-3" d="m284.18,183.57c-15.8-8.28-31.94-16.55-47.6-24.66l-164.77,96.98c-6.92,4.07-13.98,5.46-18.94,2.54-3.87-2.28-6.47-7.2-6.74-15.52l5.14-178.63L5.52,35.86C3.37,119.43,2.98,166.89.05,250.13c-.48,13.43,2.33,24.95,7.76,34.19,4.43,7.53,10.48,13.42,17.86,17.55,6.98,3.89,14.94,6.04,23.63,6.35,13.68.49,29.33-3.76,45.48-13.26,63.1-37.11,126.28-74.23,189.39-111.38h0Z"/>
    <path class="cls-1" d="m82.31,354.46c.42-17.84,1.04-35.96,1.55-53.59l173.06-101.34c6.92-4.08,11.57-9.57,11.41-15.32-.11-4.49-3.14-9.15-10.29-13.42L96.4,86l.89-20.85c.18-4.2,1.35-8.83,2.89-11.4,2.22-4.24,7.94-7.34,12.7-7.22,2.89.07,6.04,1.06,9.65,2.77l98.54,50.52,65.65,34.19c11.97,6.11,20.67,14.15,26.11,23.39,4.43,7.53,6.65,15.67,6.67,24.12.02,8-1.96,16.01-5.92,23.75-6.22,12.19-17.53,23.81-33.68,33.32-63.08,37.16-113.08,66.64-176.19,103.79l-21.4,12.08Z"/>
    <path class="cls-2" d="m326.53,103.05c-61.79-32.47-118.68-61.74-180.52-94.12C135.2,3.2,124.46.32,114.23.03c-11.43-.34-22.06,2.54-31.37,8.27-9.02,5.55-16.46,13.58-21.85,23.74-5.66,10.67-9.43,23.88-9.98,38.91l-5.47,171.32c.22,8.32,2.8,13.24,6.65,15.54,4.95,2.95,12.01,1.59,18.96-2.44l19.15-11.14,1.13-.82,6.11-173.26c.55-8.63-.13-17.07,8.43-21.91,2.32-1.32,4.95-2.1,7.29-2.03,2.89.09,6.03,1.09,9.63,2.82l158.11,82.03,27.86-16.56,17.66-11.45Z"/>
  </g>
</svg>